<svg version="1.2" xmlns="http://www.w3.org/2000/svg" viewBox="0 0 275 234" width="275" height="234">
	<title>logo_full-svg</title>
	<style>
		.s0 { fill: #00847b } 
	</style>
	<path id="Layer" fill-rule="evenodd" class="s0" d="m175.8 176.4c0 20.4-16.5 36.9-36.9 36.9-20.4 0-36.9-16.5-36.9-36.9 0-5.8 1.3-11.3 3.7-16.2l-15.6-12.6-0.3-0.3c-5.1 8.6-8 18.5-8 29.1 0 31.5 25.5 57 57.1 57 31.6 0 57.1-25.5 57.1-57 0-31.4-25.5-56.9-57.1-56.9h-138.9l36.8 29v-8.9h102.1c20.4 0 36.9 16.5 36.9 36.8z"/>
	<path id="Layer" fill-rule="evenodd" class="s0" d="m98.6 56.9c0-20.3 16.6-36.8 37-36.8 20.4 0 36.9 16.5 36.9 36.8 0 5.9-1.3 11.4-3.7 16.3l15.5 12.6 0.4 0.2c5.1-8.5 8-18.4 8-29.1 0-31.4-25.6-56.9-57.1-56.9-31.6 0-57.2 25.5-57.2 56.9 0 31.5 25.6 57 57.2 57h138.9l-36.8-29v8.9h-102.1c-20.4 0-37-16.5-37-36.9z"/>
</svg>