<svg version="1.2" xmlns="http://www.w3.org/2000/svg" viewBox="0 0 240 240" width="240" height="240">
	<title>token_512x512-svg</title>
	<style>
		.s0 { fill: #00847b } 
	</style>
	<g id="Layer">
		<path id="Layer" fill-rule="evenodd" class="s0" d="m146 2.9c46.1 10.4 81.6 46.5 91.6 93.1 2.5 11.8 2.5 36.2 0 48-10.2 47.3-46.3 83.4-93.6 93.6-11.8 2.5-36.2 2.5-48 0-47.3-10.2-83.4-46.3-93.6-93.6-2.5-11.8-2.5-36.2 0-48 2.4-11.1 5.8-20.5 11.4-31.3 18-35.2 52.5-58.9 93.2-64.1 7.5-0.9 30.7 0.4 39 2.3zm-36.7 28.6c-13.1 2.8-24.5 12-30.4 24.2-2.8 5.8-3.4 8.2-3.7 15.9-0.6 14 2.5 23 11.2 32.2 5.7 6.1 11.2 9.7 18.4 12.1 6 2.1 7.8 2.1 63.3 1.9l57.1-0.3-13.6-10.8c-7.5-5.9-14.1-10.7-14.6-10.7-0.6 0-1 1.3-1 3v3h-40.8c-47.4 0-47.3 0-55.9-8.5-6.2-6.3-8.9-13.6-8-22 2.8-27.3 40.2-33.7 52.2-9 2.4 4.9 2.7 6.3 2.2 12.7-0.3 4-0.8 8.4-1.2 9.8-0.5 2.2 0.2 3.2 5.5 7.3 5.8 4.6 6.2 4.8 7.5 3 2-2.7 4.5-11.1 5.1-17.3 2.3-22-14.6-43.4-37.1-47-7.4-1.2-8.4-1.2-16.2 0.5zm-37.5 90.5c-48 0-57 0.2-55.8 1.3 4.3 4 26.1 20.7 27 20.7 0.5 0 1-1.4 1-3v-3h40.8c47.4 0 47.3 0 55.9 8.5 6.2 6.3 8.9 13.6 8 22-2.8 27.3-40.2 33.7-52.2 9-2.4-4.9-2.7-6.3-2.2-12.7 0.3-4 0.8-8.4 1.2-9.8 0.5-2.2-0.2-3.2-5.5-7.3-5.8-4.6-6.2-4.8-7.5-3-2 2.7-4.5 11.1-5.1 17.3-2.3 22.2 14.6 43.4 37.6 47.1 18.4 2.9 37.8-7.5 46.1-24.8 2.8-5.8 3.4-8.2 3.7-15.9 0.6-14-2.5-23-11.2-32.2-5.7-6.1-11.2-9.7-18.4-12.1-5.9-2-8.2-2.1-63.4-2.1z"/>
	</g>
</svg>